<mxfile host="app.diagrams.net" modified="2023-02-27T11:31:52.555Z" agent="5.0 (Windows NT 10.0; Win64; x64) AppleWebKit/537.36 (KHTML, like Gecko) Chrome/110.0.0.0 Safari/537.36" etag="sHbH7J5KZ9iVYonnjXe3" version="20.8.13" type="github" pages="3">
  <diagram id="C5RBs43oDa-KdzZeNtuy" name="Visitor and Agent User Flow">
    <mxGraphModel dx="3033" dy="1083" grid="1" gridSize="10" guides="1" tooltips="1" connect="1" arrows="1" fold="1" page="1" pageScale="1" pageWidth="827" pageHeight="1169" math="0" shadow="0">
      <root>
        <mxCell id="WIyWlLk6GJQsqaUBKTNV-0" />
        <mxCell id="WIyWlLk6GJQsqaUBKTNV-1" parent="WIyWlLk6GJQsqaUBKTNV-0" />
        <mxCell id="2A1EORPoHqhhwJPMqZPA-5" style="edgeStyle=orthogonalEdgeStyle;rounded=0;orthogonalLoop=1;jettySize=auto;html=1;" parent="WIyWlLk6GJQsqaUBKTNV-1" source="WIyWlLk6GJQsqaUBKTNV-3" edge="1">
          <mxGeometry relative="1" as="geometry">
            <mxPoint x="200" y="210" as="targetPoint" />
          </mxGeometry>
        </mxCell>
        <mxCell id="WIyWlLk6GJQsqaUBKTNV-3" value="ENTER" style="rounded=1;whiteSpace=wrap;html=1;fontSize=12;glass=0;strokeWidth=1;shadow=0;arcSize=50;fillColor=#dae8fc;strokeColor=#6c8ebf;" parent="WIyWlLk6GJQsqaUBKTNV-1" vertex="1">
          <mxGeometry x="160" y="80" width="80" height="40" as="geometry" />
        </mxCell>
        <mxCell id="2A1EORPoHqhhwJPMqZPA-8" style="edgeStyle=orthogonalEdgeStyle;rounded=0;orthogonalLoop=1;jettySize=auto;html=1;" parent="WIyWlLk6GJQsqaUBKTNV-1" source="2A1EORPoHqhhwJPMqZPA-6" edge="1">
          <mxGeometry relative="1" as="geometry">
            <mxPoint x="200" y="370" as="targetPoint" />
          </mxGeometry>
        </mxCell>
        <mxCell id="-bC1mM1Bt72tkPeetgLI-8" style="edgeStyle=orthogonalEdgeStyle;rounded=0;orthogonalLoop=1;jettySize=auto;html=1;dashed=1;" edge="1" parent="WIyWlLk6GJQsqaUBKTNV-1" source="2A1EORPoHqhhwJPMqZPA-6">
          <mxGeometry relative="1" as="geometry">
            <mxPoint x="340" y="240" as="targetPoint" />
          </mxGeometry>
        </mxCell>
        <mxCell id="2A1EORPoHqhhwJPMqZPA-6" value="Listings Screen With Desa Park City Default" style="rounded=1;whiteSpace=wrap;html=1;fillColor=#f8cecc;strokeColor=#b85450;" parent="WIyWlLk6GJQsqaUBKTNV-1" vertex="1">
          <mxGeometry x="140" y="210" width="120" height="60" as="geometry" />
        </mxCell>
        <mxCell id="2A1EORPoHqhhwJPMqZPA-11" style="edgeStyle=orthogonalEdgeStyle;rounded=0;orthogonalLoop=1;jettySize=auto;html=1;" parent="WIyWlLk6GJQsqaUBKTNV-1" source="2A1EORPoHqhhwJPMqZPA-9" edge="1">
          <mxGeometry relative="1" as="geometry">
            <mxPoint x="340" y="430" as="targetPoint" />
          </mxGeometry>
        </mxCell>
        <mxCell id="2A1EORPoHqhhwJPMqZPA-16" style="edgeStyle=orthogonalEdgeStyle;rounded=0;orthogonalLoop=1;jettySize=auto;html=1;dashed=1;entryX=0;entryY=0.5;entryDx=0;entryDy=0;" parent="WIyWlLk6GJQsqaUBKTNV-1" source="2A1EORPoHqhhwJPMqZPA-9" edge="1" target="2A1EORPoHqhhwJPMqZPA-6">
          <mxGeometry relative="1" as="geometry">
            <mxPoint x="200" y="570" as="targetPoint" />
            <Array as="points">
              <mxPoint y="430" />
              <mxPoint y="240" />
            </Array>
          </mxGeometry>
        </mxCell>
        <mxCell id="2A1EORPoHqhhwJPMqZPA-9" value="Login as agent clicked?" style="rhombus;whiteSpace=wrap;html=1;" parent="WIyWlLk6GJQsqaUBKTNV-1" vertex="1">
          <mxGeometry x="140" y="370" width="120" height="120" as="geometry" />
        </mxCell>
        <mxCell id="2A1EORPoHqhhwJPMqZPA-12" value="Yes" style="text;html=1;strokeColor=none;fillColor=none;align=center;verticalAlign=middle;whiteSpace=wrap;rounded=0;" parent="WIyWlLk6GJQsqaUBKTNV-1" vertex="1">
          <mxGeometry x="260" y="400" width="60" height="30" as="geometry" />
        </mxCell>
        <mxCell id="2A1EORPoHqhhwJPMqZPA-13" value="No" style="text;html=1;strokeColor=none;fillColor=none;align=center;verticalAlign=middle;whiteSpace=wrap;rounded=0;" parent="WIyWlLk6GJQsqaUBKTNV-1" vertex="1">
          <mxGeometry x="60" y="390" width="60" height="30" as="geometry" />
        </mxCell>
        <mxCell id="2A1EORPoHqhhwJPMqZPA-36" style="edgeStyle=orthogonalEdgeStyle;rounded=0;orthogonalLoop=1;jettySize=auto;html=1;" parent="WIyWlLk6GJQsqaUBKTNV-1" source="2A1EORPoHqhhwJPMqZPA-21" edge="1">
          <mxGeometry relative="1" as="geometry">
            <mxPoint x="970" y="430" as="targetPoint" />
          </mxGeometry>
        </mxCell>
        <mxCell id="2A1EORPoHqhhwJPMqZPA-21" value="Agent Profile/ Listings Screen" style="rounded=1;whiteSpace=wrap;html=1;glass=0;fillColor=#f8cecc;strokeColor=#b85450;" parent="WIyWlLk6GJQsqaUBKTNV-1" vertex="1">
          <mxGeometry x="770" y="400" width="120" height="60" as="geometry" />
        </mxCell>
        <mxCell id="2A1EORPoHqhhwJPMqZPA-23" value="Yes" style="text;html=1;strokeColor=none;fillColor=none;align=center;verticalAlign=middle;whiteSpace=wrap;rounded=0;" parent="WIyWlLk6GJQsqaUBKTNV-1" vertex="1">
          <mxGeometry x="680" y="400" width="60" height="30" as="geometry" />
        </mxCell>
        <mxCell id="2A1EORPoHqhhwJPMqZPA-24" value="No" style="text;html=1;strokeColor=none;fillColor=none;align=center;verticalAlign=middle;whiteSpace=wrap;rounded=0;" parent="WIyWlLk6GJQsqaUBKTNV-1" vertex="1">
          <mxGeometry x="460" y="320" width="60" height="30" as="geometry" />
        </mxCell>
        <mxCell id="2A1EORPoHqhhwJPMqZPA-45" style="edgeStyle=orthogonalEdgeStyle;rounded=0;orthogonalLoop=1;jettySize=auto;html=1;entryX=0.5;entryY=1;entryDx=0;entryDy=0;startArrow=classic;startFill=1;" parent="WIyWlLk6GJQsqaUBKTNV-1" source="2A1EORPoHqhhwJPMqZPA-28" target="2A1EORPoHqhhwJPMqZPA-21" edge="1">
          <mxGeometry relative="1" as="geometry" />
        </mxCell>
        <mxCell id="2A1EORPoHqhhwJPMqZPA-47" style="edgeStyle=orthogonalEdgeStyle;rounded=0;orthogonalLoop=1;jettySize=auto;html=1;startArrow=none;startFill=0;endArrow=classic;endFill=1;" parent="WIyWlLk6GJQsqaUBKTNV-1" source="2A1EORPoHqhhwJPMqZPA-28" edge="1">
          <mxGeometry relative="1" as="geometry">
            <mxPoint x="200" y="860" as="targetPoint" />
          </mxGeometry>
        </mxCell>
        <mxCell id="2A1EORPoHqhhwJPMqZPA-50" style="edgeStyle=orthogonalEdgeStyle;rounded=0;orthogonalLoop=1;jettySize=auto;html=1;startArrow=none;startFill=0;endArrow=classic;endFill=1;" parent="WIyWlLk6GJQsqaUBKTNV-1" source="2A1EORPoHqhhwJPMqZPA-28" edge="1">
          <mxGeometry relative="1" as="geometry">
            <mxPoint x="20" y="750" as="targetPoint" />
          </mxGeometry>
        </mxCell>
        <mxCell id="2A1EORPoHqhhwJPMqZPA-28" value="Single Listing Screen" style="rounded=1;whiteSpace=wrap;html=1;fillColor=#f8cecc;strokeColor=#b85450;" parent="WIyWlLk6GJQsqaUBKTNV-1" vertex="1">
          <mxGeometry x="140" y="720" width="120" height="60" as="geometry" />
        </mxCell>
        <mxCell id="2A1EORPoHqhhwJPMqZPA-39" style="edgeStyle=orthogonalEdgeStyle;rounded=0;orthogonalLoop=1;jettySize=auto;html=1;" parent="WIyWlLk6GJQsqaUBKTNV-1" source="2A1EORPoHqhhwJPMqZPA-37" edge="1">
          <mxGeometry relative="1" as="geometry">
            <mxPoint x="1160" y="430" as="targetPoint" />
          </mxGeometry>
        </mxCell>
        <mxCell id="2A1EORPoHqhhwJPMqZPA-37" value="CRUD Listing" style="shape=process;whiteSpace=wrap;html=1;backgroundOutline=1;glass=0;sketch=0;" parent="WIyWlLk6GJQsqaUBKTNV-1" vertex="1">
          <mxGeometry x="970" y="400" width="120" height="60" as="geometry" />
        </mxCell>
        <mxCell id="2A1EORPoHqhhwJPMqZPA-41" style="edgeStyle=orthogonalEdgeStyle;rounded=0;orthogonalLoop=1;jettySize=auto;html=1;exitX=0.5;exitY=0;exitDx=0;exitDy=0;" parent="WIyWlLk6GJQsqaUBKTNV-1" source="2A1EORPoHqhhwJPMqZPA-40" edge="1">
          <mxGeometry relative="1" as="geometry">
            <mxPoint x="830" y="400" as="targetPoint" />
            <Array as="points">
              <mxPoint x="1220" y="355" />
              <mxPoint x="830" y="355" />
              <mxPoint x="830" y="400" />
            </Array>
          </mxGeometry>
        </mxCell>
        <mxCell id="2A1EORPoHqhhwJPMqZPA-42" value="Yes" style="edgeLabel;html=1;align=center;verticalAlign=middle;resizable=0;points=[];" parent="2A1EORPoHqhhwJPMqZPA-41" vertex="1" connectable="0">
          <mxGeometry x="-0.1765" relative="1" as="geometry">
            <mxPoint y="-10" as="offset" />
          </mxGeometry>
        </mxCell>
        <mxCell id="-bC1mM1Bt72tkPeetgLI-6" style="edgeStyle=orthogonalEdgeStyle;rounded=0;orthogonalLoop=1;jettySize=auto;html=1;entryX=0.5;entryY=1;entryDx=0;entryDy=0;dashed=1;exitX=0.5;exitY=1;exitDx=0;exitDy=0;" edge="1" parent="WIyWlLk6GJQsqaUBKTNV-1" source="2A1EORPoHqhhwJPMqZPA-40" target="-bC1mM1Bt72tkPeetgLI-1">
          <mxGeometry relative="1" as="geometry" />
        </mxCell>
        <mxCell id="2A1EORPoHqhhwJPMqZPA-40" value="Authenticated" style="rhombus;whiteSpace=wrap;html=1;glass=0;sketch=0;" parent="WIyWlLk6GJQsqaUBKTNV-1" vertex="1">
          <mxGeometry x="1160" y="375" width="120" height="110" as="geometry" />
        </mxCell>
        <mxCell id="2A1EORPoHqhhwJPMqZPA-44" value="No" style="edgeLabel;html=1;align=center;verticalAlign=middle;resizable=0;points=[];" parent="WIyWlLk6GJQsqaUBKTNV-1" vertex="1" connectable="0">
          <mxGeometry x="880" y="490" as="geometry">
            <mxPoint x="173" y="30" as="offset" />
          </mxGeometry>
        </mxCell>
        <mxCell id="2A1EORPoHqhhwJPMqZPA-63" style="edgeStyle=orthogonalEdgeStyle;rounded=0;orthogonalLoop=1;jettySize=auto;html=1;startArrow=none;startFill=0;endArrow=classic;endFill=1;" parent="WIyWlLk6GJQsqaUBKTNV-1" source="2A1EORPoHqhhwJPMqZPA-48" edge="1">
          <mxGeometry relative="1" as="geometry">
            <mxPoint x="200" y="960" as="targetPoint" />
          </mxGeometry>
        </mxCell>
        <mxCell id="2A1EORPoHqhhwJPMqZPA-48" value="Share link" style="shape=process;whiteSpace=wrap;html=1;backgroundOutline=1;glass=0;sketch=0;" parent="WIyWlLk6GJQsqaUBKTNV-1" vertex="1">
          <mxGeometry x="140" y="860" width="120" height="60" as="geometry" />
        </mxCell>
        <mxCell id="2A1EORPoHqhhwJPMqZPA-53" style="edgeStyle=orthogonalEdgeStyle;rounded=0;orthogonalLoop=1;jettySize=auto;html=1;startArrow=none;startFill=0;endArrow=classic;endFill=1;" parent="WIyWlLk6GJQsqaUBKTNV-1" edge="1">
          <mxGeometry relative="1" as="geometry">
            <mxPoint x="-100" y="750" as="sourcePoint" />
            <mxPoint x="-190" y="750" as="targetPoint" />
          </mxGeometry>
        </mxCell>
        <mxCell id="2A1EORPoHqhhwJPMqZPA-54" value="Yes" style="edgeLabel;html=1;align=center;verticalAlign=middle;resizable=0;points=[];" parent="2A1EORPoHqhhwJPMqZPA-53" vertex="1" connectable="0">
          <mxGeometry x="-0.2062" y="-1" relative="1" as="geometry">
            <mxPoint y="-9" as="offset" />
          </mxGeometry>
        </mxCell>
        <mxCell id="2A1EORPoHqhhwJPMqZPA-56" style="edgeStyle=orthogonalEdgeStyle;rounded=0;orthogonalLoop=1;jettySize=auto;html=1;startArrow=none;startFill=0;endArrow=classic;endFill=1;exitX=0.5;exitY=0;exitDx=0;exitDy=0;dashed=1;" parent="WIyWlLk6GJQsqaUBKTNV-1" edge="1">
          <mxGeometry relative="1" as="geometry">
            <mxPoint x="-40" y="690" as="sourcePoint" />
            <mxPoint x="180" y="720" as="targetPoint" />
            <Array as="points">
              <mxPoint x="-40" y="670" />
              <mxPoint x="180" y="670" />
              <mxPoint x="180" y="720" />
            </Array>
          </mxGeometry>
        </mxCell>
        <mxCell id="2A1EORPoHqhhwJPMqZPA-60" style="edgeStyle=orthogonalEdgeStyle;rounded=0;orthogonalLoop=1;jettySize=auto;html=1;startArrow=none;startFill=0;endArrow=classic;endFill=1;" parent="WIyWlLk6GJQsqaUBKTNV-1" source="2A1EORPoHqhhwJPMqZPA-55" edge="1">
          <mxGeometry relative="1" as="geometry">
            <mxPoint x="-350" y="750" as="targetPoint" />
          </mxGeometry>
        </mxCell>
        <mxCell id="2A1EORPoHqhhwJPMqZPA-55" value="Send Whatsapp message" style="shape=process;whiteSpace=wrap;html=1;backgroundOutline=1;glass=0;sketch=0;" parent="WIyWlLk6GJQsqaUBKTNV-1" vertex="1">
          <mxGeometry x="-310" y="720" width="120" height="60" as="geometry" />
        </mxCell>
        <mxCell id="2A1EORPoHqhhwJPMqZPA-57" value="No" style="edgeLabel;html=1;align=center;verticalAlign=middle;resizable=0;points=[];" parent="WIyWlLk6GJQsqaUBKTNV-1" vertex="1" connectable="0">
          <mxGeometry x="89.99588235294121" y="660" as="geometry">
            <mxPoint x="-8" y="-6" as="offset" />
          </mxGeometry>
        </mxCell>
        <mxCell id="2A1EORPoHqhhwJPMqZPA-58" value="Entered as visitor" style="rhombus;whiteSpace=wrap;html=1;glass=0;sketch=0;" parent="WIyWlLk6GJQsqaUBKTNV-1" vertex="1">
          <mxGeometry x="-100" y="690" width="120" height="120" as="geometry" />
        </mxCell>
        <mxCell id="2A1EORPoHqhhwJPMqZPA-61" value="CLOSE" style="rounded=1;whiteSpace=wrap;html=1;fontSize=12;glass=0;strokeWidth=1;shadow=0;arcSize=50;fillColor=#dae8fc;strokeColor=#6c8ebf;" parent="WIyWlLk6GJQsqaUBKTNV-1" vertex="1">
          <mxGeometry x="-430" y="730" width="80" height="40" as="geometry" />
        </mxCell>
        <mxCell id="2A1EORPoHqhhwJPMqZPA-64" value="CLOSE" style="rounded=1;whiteSpace=wrap;html=1;fontSize=12;glass=0;strokeWidth=1;shadow=0;arcSize=50;fillColor=#dae8fc;strokeColor=#6c8ebf;" parent="WIyWlLk6GJQsqaUBKTNV-1" vertex="1">
          <mxGeometry x="160" y="960" width="80" height="40" as="geometry" />
        </mxCell>
        <mxCell id="-bC1mM1Bt72tkPeetgLI-5" style="edgeStyle=orthogonalEdgeStyle;rounded=0;orthogonalLoop=1;jettySize=auto;html=1;entryX=0.5;entryY=0;entryDx=0;entryDy=0;exitX=0.5;exitY=0;exitDx=0;exitDy=0;dashed=1;" edge="1" parent="WIyWlLk6GJQsqaUBKTNV-1" source="-bC1mM1Bt72tkPeetgLI-0" target="-bC1mM1Bt72tkPeetgLI-1">
          <mxGeometry relative="1" as="geometry" />
        </mxCell>
        <mxCell id="-bC1mM1Bt72tkPeetgLI-0" value="Correct Auth" style="rhombus;whiteSpace=wrap;html=1;glass=0;sketch=0;" vertex="1" parent="WIyWlLk6GJQsqaUBKTNV-1">
          <mxGeometry x="530" y="370" width="110" height="120" as="geometry" />
        </mxCell>
        <mxCell id="-bC1mM1Bt72tkPeetgLI-2" style="edgeStyle=orthogonalEdgeStyle;rounded=0;orthogonalLoop=1;jettySize=auto;html=1;" edge="1" parent="WIyWlLk6GJQsqaUBKTNV-1" source="-bC1mM1Bt72tkPeetgLI-1" target="-bC1mM1Bt72tkPeetgLI-0">
          <mxGeometry relative="1" as="geometry" />
        </mxCell>
        <mxCell id="-bC1mM1Bt72tkPeetgLI-1" value="Login/ Signup Screen" style="rounded=1;whiteSpace=wrap;html=1;glass=0;fillColor=#f8cecc;strokeColor=#b85450;" vertex="1" parent="WIyWlLk6GJQsqaUBKTNV-1">
          <mxGeometry x="340" y="400" width="120" height="60" as="geometry" />
        </mxCell>
        <mxCell id="-bC1mM1Bt72tkPeetgLI-4" style="edgeStyle=orthogonalEdgeStyle;rounded=0;orthogonalLoop=1;jettySize=auto;html=1;entryX=0;entryY=0.5;entryDx=0;entryDy=0;" edge="1" parent="WIyWlLk6GJQsqaUBKTNV-1" target="2A1EORPoHqhhwJPMqZPA-21">
          <mxGeometry relative="1" as="geometry">
            <mxPoint x="720" y="429.71" as="targetPoint" />
            <mxPoint x="640" y="429.71" as="sourcePoint" />
          </mxGeometry>
        </mxCell>
        <mxCell id="-bC1mM1Bt72tkPeetgLI-11" style="edgeStyle=orthogonalEdgeStyle;rounded=0;orthogonalLoop=1;jettySize=auto;html=1;dashed=1;entryX=0;entryY=0.5;entryDx=0;entryDy=0;" edge="1" parent="WIyWlLk6GJQsqaUBKTNV-1" source="-bC1mM1Bt72tkPeetgLI-9" target="-bC1mM1Bt72tkPeetgLI-12">
          <mxGeometry relative="1" as="geometry">
            <mxPoint x="515" y="240" as="targetPoint" />
          </mxGeometry>
        </mxCell>
        <mxCell id="-bC1mM1Bt72tkPeetgLI-9" value="Home Button Pressed" style="rhombus;whiteSpace=wrap;html=1;glass=0;sketch=0;" vertex="1" parent="WIyWlLk6GJQsqaUBKTNV-1">
          <mxGeometry x="340" y="180" width="110" height="120" as="geometry" />
        </mxCell>
        <mxCell id="-bC1mM1Bt72tkPeetgLI-16" style="edgeStyle=orthogonalEdgeStyle;rounded=0;orthogonalLoop=1;jettySize=auto;html=1;entryX=0;entryY=0.5;entryDx=0;entryDy=0;dashed=1;" edge="1" parent="WIyWlLk6GJQsqaUBKTNV-1" source="-bC1mM1Bt72tkPeetgLI-12" target="-bC1mM1Bt72tkPeetgLI-15">
          <mxGeometry relative="1" as="geometry" />
        </mxCell>
        <mxCell id="-bC1mM1Bt72tkPeetgLI-12" value="Listings Screen" style="rounded=1;whiteSpace=wrap;html=1;fillColor=#f8cecc;strokeColor=#b85450;" vertex="1" parent="WIyWlLk6GJQsqaUBKTNV-1">
          <mxGeometry x="520" y="210" width="120" height="60" as="geometry" />
        </mxCell>
        <mxCell id="-bC1mM1Bt72tkPeetgLI-15" value="&lt;b&gt;&lt;font style=&quot;font-size: 20px;&quot;&gt;1&lt;/font&gt;&lt;/b&gt;" style="ellipse;whiteSpace=wrap;html=1;fillColor=#f8cecc;strokeColor=#b85450;rounded=1;" vertex="1" parent="WIyWlLk6GJQsqaUBKTNV-1">
          <mxGeometry x="740" y="210" width="60" height="60" as="geometry" />
        </mxCell>
        <mxCell id="-bC1mM1Bt72tkPeetgLI-18" style="edgeStyle=orthogonalEdgeStyle;rounded=0;orthogonalLoop=1;jettySize=auto;html=1;dashed=1;fontSize=20;" edge="1" parent="WIyWlLk6GJQsqaUBKTNV-1" target="2A1EORPoHqhhwJPMqZPA-28">
          <mxGeometry relative="1" as="geometry">
            <mxPoint x="200" y="610" as="sourcePoint" />
          </mxGeometry>
        </mxCell>
        <mxCell id="-bC1mM1Bt72tkPeetgLI-19" value="&lt;b&gt;&lt;font style=&quot;font-size: 20px;&quot;&gt;1&lt;/font&gt;&lt;/b&gt;" style="ellipse;whiteSpace=wrap;html=1;fillColor=#f8cecc;strokeColor=#b85450;rounded=1;" vertex="1" parent="WIyWlLk6GJQsqaUBKTNV-1">
          <mxGeometry x="170" y="554" width="60" height="60" as="geometry" />
        </mxCell>
      </root>
    </mxGraphModel>
  </diagram>
  <diagram name="Admin Dashboard User Flow" id="Zj_i18G-1ij8t8G8Q4dO">
    <mxGraphModel dx="2261" dy="704" grid="1" gridSize="10" guides="1" tooltips="1" connect="1" arrows="1" fold="1" page="1" pageScale="1" pageWidth="827" pageHeight="1169" math="0" shadow="0">
      <root>
        <mxCell id="FHkpGJtZapeOgSbPol6g-0" />
        <mxCell id="FHkpGJtZapeOgSbPol6g-1" parent="FHkpGJtZapeOgSbPol6g-0" />
        <mxCell id="FHkpGJtZapeOgSbPol6g-2" style="edgeStyle=orthogonalEdgeStyle;rounded=0;orthogonalLoop=1;jettySize=auto;html=1;" edge="1" parent="FHkpGJtZapeOgSbPol6g-1" source="FHkpGJtZapeOgSbPol6g-3">
          <mxGeometry relative="1" as="geometry">
            <mxPoint x="200" y="210" as="targetPoint" />
          </mxGeometry>
        </mxCell>
        <mxCell id="FHkpGJtZapeOgSbPol6g-3" value="ENTER" style="rounded=1;whiteSpace=wrap;html=1;fontSize=12;glass=0;strokeWidth=1;shadow=0;arcSize=50;fillColor=#dae8fc;strokeColor=#6c8ebf;" vertex="1" parent="FHkpGJtZapeOgSbPol6g-1">
          <mxGeometry x="160" y="80" width="80" height="40" as="geometry" />
        </mxCell>
        <mxCell id="FHkpGJtZapeOgSbPol6g-4" style="edgeStyle=orthogonalEdgeStyle;rounded=0;orthogonalLoop=1;jettySize=auto;html=1;" edge="1" parent="FHkpGJtZapeOgSbPol6g-1" source="FHkpGJtZapeOgSbPol6g-6">
          <mxGeometry relative="1" as="geometry">
            <mxPoint x="200" y="370" as="targetPoint" />
          </mxGeometry>
        </mxCell>
        <mxCell id="FHkpGJtZapeOgSbPol6g-5" style="edgeStyle=orthogonalEdgeStyle;rounded=0;orthogonalLoop=1;jettySize=auto;html=1;dashed=1;" edge="1" parent="FHkpGJtZapeOgSbPol6g-1" source="FHkpGJtZapeOgSbPol6g-6">
          <mxGeometry relative="1" as="geometry">
            <mxPoint x="340" y="240" as="targetPoint" />
          </mxGeometry>
        </mxCell>
        <mxCell id="FHkpGJtZapeOgSbPol6g-6" value="Listings Screen With Desa Park City Default" style="rounded=1;whiteSpace=wrap;html=1;fillColor=#f8cecc;strokeColor=#b85450;" vertex="1" parent="FHkpGJtZapeOgSbPol6g-1">
          <mxGeometry x="140" y="210" width="120" height="60" as="geometry" />
        </mxCell>
        <mxCell id="FHkpGJtZapeOgSbPol6g-7" style="edgeStyle=orthogonalEdgeStyle;rounded=0;orthogonalLoop=1;jettySize=auto;html=1;" edge="1" parent="FHkpGJtZapeOgSbPol6g-1" source="FHkpGJtZapeOgSbPol6g-9">
          <mxGeometry relative="1" as="geometry">
            <mxPoint x="340" y="430" as="targetPoint" />
          </mxGeometry>
        </mxCell>
        <mxCell id="FHkpGJtZapeOgSbPol6g-8" style="edgeStyle=orthogonalEdgeStyle;rounded=0;orthogonalLoop=1;jettySize=auto;html=1;dashed=1;entryX=0;entryY=0.5;entryDx=0;entryDy=0;" edge="1" parent="FHkpGJtZapeOgSbPol6g-1" source="FHkpGJtZapeOgSbPol6g-9" target="FHkpGJtZapeOgSbPol6g-6">
          <mxGeometry relative="1" as="geometry">
            <mxPoint x="200" y="570" as="targetPoint" />
            <Array as="points">
              <mxPoint y="430" />
              <mxPoint y="240" />
            </Array>
          </mxGeometry>
        </mxCell>
        <mxCell id="FHkpGJtZapeOgSbPol6g-9" value="Login as agent clicked?" style="rhombus;whiteSpace=wrap;html=1;" vertex="1" parent="FHkpGJtZapeOgSbPol6g-1">
          <mxGeometry x="140" y="370" width="120" height="120" as="geometry" />
        </mxCell>
        <mxCell id="FHkpGJtZapeOgSbPol6g-10" value="Yes" style="text;html=1;strokeColor=none;fillColor=none;align=center;verticalAlign=middle;whiteSpace=wrap;rounded=0;" vertex="1" parent="FHkpGJtZapeOgSbPol6g-1">
          <mxGeometry x="260" y="400" width="60" height="30" as="geometry" />
        </mxCell>
        <mxCell id="FHkpGJtZapeOgSbPol6g-11" value="No" style="text;html=1;strokeColor=none;fillColor=none;align=center;verticalAlign=middle;whiteSpace=wrap;rounded=0;" vertex="1" parent="FHkpGJtZapeOgSbPol6g-1">
          <mxGeometry x="60" y="390" width="60" height="30" as="geometry" />
        </mxCell>
        <mxCell id="FHkpGJtZapeOgSbPol6g-12" style="edgeStyle=orthogonalEdgeStyle;rounded=0;orthogonalLoop=1;jettySize=auto;html=1;" edge="1" parent="FHkpGJtZapeOgSbPol6g-1" source="FHkpGJtZapeOgSbPol6g-13">
          <mxGeometry relative="1" as="geometry">
            <mxPoint x="970" y="430" as="targetPoint" />
          </mxGeometry>
        </mxCell>
        <mxCell id="FHkpGJtZapeOgSbPol6g-13" value="Agent Profile/ Listings Screen" style="rounded=1;whiteSpace=wrap;html=1;glass=0;fillColor=#f8cecc;strokeColor=#b85450;" vertex="1" parent="FHkpGJtZapeOgSbPol6g-1">
          <mxGeometry x="770" y="400" width="120" height="60" as="geometry" />
        </mxCell>
        <mxCell id="FHkpGJtZapeOgSbPol6g-14" value="Yes" style="text;html=1;strokeColor=none;fillColor=none;align=center;verticalAlign=middle;whiteSpace=wrap;rounded=0;" vertex="1" parent="FHkpGJtZapeOgSbPol6g-1">
          <mxGeometry x="680" y="400" width="60" height="30" as="geometry" />
        </mxCell>
        <mxCell id="FHkpGJtZapeOgSbPol6g-15" value="No" style="text;html=1;strokeColor=none;fillColor=none;align=center;verticalAlign=middle;whiteSpace=wrap;rounded=0;" vertex="1" parent="FHkpGJtZapeOgSbPol6g-1">
          <mxGeometry x="460" y="320" width="60" height="30" as="geometry" />
        </mxCell>
        <mxCell id="FHkpGJtZapeOgSbPol6g-16" style="edgeStyle=orthogonalEdgeStyle;rounded=0;orthogonalLoop=1;jettySize=auto;html=1;entryX=0.5;entryY=1;entryDx=0;entryDy=0;startArrow=classic;startFill=1;" edge="1" parent="FHkpGJtZapeOgSbPol6g-1" source="FHkpGJtZapeOgSbPol6g-19" target="FHkpGJtZapeOgSbPol6g-13">
          <mxGeometry relative="1" as="geometry" />
        </mxCell>
        <mxCell id="FHkpGJtZapeOgSbPol6g-17" style="edgeStyle=orthogonalEdgeStyle;rounded=0;orthogonalLoop=1;jettySize=auto;html=1;startArrow=none;startFill=0;endArrow=classic;endFill=1;" edge="1" parent="FHkpGJtZapeOgSbPol6g-1" source="FHkpGJtZapeOgSbPol6g-19">
          <mxGeometry relative="1" as="geometry">
            <mxPoint x="200" y="860" as="targetPoint" />
          </mxGeometry>
        </mxCell>
        <mxCell id="FHkpGJtZapeOgSbPol6g-18" style="edgeStyle=orthogonalEdgeStyle;rounded=0;orthogonalLoop=1;jettySize=auto;html=1;startArrow=none;startFill=0;endArrow=classic;endFill=1;" edge="1" parent="FHkpGJtZapeOgSbPol6g-1" source="FHkpGJtZapeOgSbPol6g-19">
          <mxGeometry relative="1" as="geometry">
            <mxPoint x="20" y="750" as="targetPoint" />
          </mxGeometry>
        </mxCell>
        <mxCell id="FHkpGJtZapeOgSbPol6g-19" value="Single Listing Screen" style="rounded=1;whiteSpace=wrap;html=1;fillColor=#f8cecc;strokeColor=#b85450;" vertex="1" parent="FHkpGJtZapeOgSbPol6g-1">
          <mxGeometry x="140" y="720" width="120" height="60" as="geometry" />
        </mxCell>
        <mxCell id="FHkpGJtZapeOgSbPol6g-20" style="edgeStyle=orthogonalEdgeStyle;rounded=0;orthogonalLoop=1;jettySize=auto;html=1;" edge="1" parent="FHkpGJtZapeOgSbPol6g-1" source="FHkpGJtZapeOgSbPol6g-21">
          <mxGeometry relative="1" as="geometry">
            <mxPoint x="1160" y="430" as="targetPoint" />
          </mxGeometry>
        </mxCell>
        <mxCell id="FHkpGJtZapeOgSbPol6g-21" value="CRUD Listing" style="shape=process;whiteSpace=wrap;html=1;backgroundOutline=1;glass=0;sketch=0;" vertex="1" parent="FHkpGJtZapeOgSbPol6g-1">
          <mxGeometry x="970" y="400" width="120" height="60" as="geometry" />
        </mxCell>
        <mxCell id="FHkpGJtZapeOgSbPol6g-22" style="edgeStyle=orthogonalEdgeStyle;rounded=0;orthogonalLoop=1;jettySize=auto;html=1;exitX=0.5;exitY=0;exitDx=0;exitDy=0;" edge="1" parent="FHkpGJtZapeOgSbPol6g-1" source="FHkpGJtZapeOgSbPol6g-25">
          <mxGeometry relative="1" as="geometry">
            <mxPoint x="830" y="400" as="targetPoint" />
            <Array as="points">
              <mxPoint x="1220" y="355" />
              <mxPoint x="830" y="355" />
              <mxPoint x="830" y="400" />
            </Array>
          </mxGeometry>
        </mxCell>
        <mxCell id="FHkpGJtZapeOgSbPol6g-23" value="Yes" style="edgeLabel;html=1;align=center;verticalAlign=middle;resizable=0;points=[];" vertex="1" connectable="0" parent="FHkpGJtZapeOgSbPol6g-22">
          <mxGeometry x="-0.1765" relative="1" as="geometry">
            <mxPoint y="-10" as="offset" />
          </mxGeometry>
        </mxCell>
        <mxCell id="FHkpGJtZapeOgSbPol6g-24" style="edgeStyle=orthogonalEdgeStyle;rounded=0;orthogonalLoop=1;jettySize=auto;html=1;entryX=0.5;entryY=1;entryDx=0;entryDy=0;dashed=1;exitX=0.5;exitY=1;exitDx=0;exitDy=0;" edge="1" parent="FHkpGJtZapeOgSbPol6g-1" source="FHkpGJtZapeOgSbPol6g-25" target="FHkpGJtZapeOgSbPol6g-41">
          <mxGeometry relative="1" as="geometry" />
        </mxCell>
        <mxCell id="FHkpGJtZapeOgSbPol6g-25" value="Authenticated" style="rhombus;whiteSpace=wrap;html=1;glass=0;sketch=0;" vertex="1" parent="FHkpGJtZapeOgSbPol6g-1">
          <mxGeometry x="1160" y="375" width="120" height="110" as="geometry" />
        </mxCell>
        <mxCell id="FHkpGJtZapeOgSbPol6g-26" value="No" style="edgeLabel;html=1;align=center;verticalAlign=middle;resizable=0;points=[];" vertex="1" connectable="0" parent="FHkpGJtZapeOgSbPol6g-1">
          <mxGeometry x="880" y="490" as="geometry">
            <mxPoint x="173" y="30" as="offset" />
          </mxGeometry>
        </mxCell>
        <mxCell id="FHkpGJtZapeOgSbPol6g-27" style="edgeStyle=orthogonalEdgeStyle;rounded=0;orthogonalLoop=1;jettySize=auto;html=1;startArrow=none;startFill=0;endArrow=classic;endFill=1;" edge="1" parent="FHkpGJtZapeOgSbPol6g-1" source="FHkpGJtZapeOgSbPol6g-28">
          <mxGeometry relative="1" as="geometry">
            <mxPoint x="200" y="960" as="targetPoint" />
          </mxGeometry>
        </mxCell>
        <mxCell id="FHkpGJtZapeOgSbPol6g-28" value="Share link" style="shape=process;whiteSpace=wrap;html=1;backgroundOutline=1;glass=0;sketch=0;" vertex="1" parent="FHkpGJtZapeOgSbPol6g-1">
          <mxGeometry x="140" y="860" width="120" height="60" as="geometry" />
        </mxCell>
        <mxCell id="FHkpGJtZapeOgSbPol6g-29" style="edgeStyle=orthogonalEdgeStyle;rounded=0;orthogonalLoop=1;jettySize=auto;html=1;startArrow=none;startFill=0;endArrow=classic;endFill=1;" edge="1" parent="FHkpGJtZapeOgSbPol6g-1">
          <mxGeometry relative="1" as="geometry">
            <mxPoint x="-100" y="750" as="sourcePoint" />
            <mxPoint x="-190" y="750" as="targetPoint" />
          </mxGeometry>
        </mxCell>
        <mxCell id="FHkpGJtZapeOgSbPol6g-30" value="Yes" style="edgeLabel;html=1;align=center;verticalAlign=middle;resizable=0;points=[];" vertex="1" connectable="0" parent="FHkpGJtZapeOgSbPol6g-29">
          <mxGeometry x="-0.2062" y="-1" relative="1" as="geometry">
            <mxPoint y="-9" as="offset" />
          </mxGeometry>
        </mxCell>
        <mxCell id="FHkpGJtZapeOgSbPol6g-31" style="edgeStyle=orthogonalEdgeStyle;rounded=0;orthogonalLoop=1;jettySize=auto;html=1;startArrow=none;startFill=0;endArrow=classic;endFill=1;exitX=0.5;exitY=0;exitDx=0;exitDy=0;dashed=1;" edge="1" parent="FHkpGJtZapeOgSbPol6g-1">
          <mxGeometry relative="1" as="geometry">
            <mxPoint x="-40" y="690" as="sourcePoint" />
            <mxPoint x="180" y="720" as="targetPoint" />
            <Array as="points">
              <mxPoint x="-40" y="670" />
              <mxPoint x="180" y="670" />
              <mxPoint x="180" y="720" />
            </Array>
          </mxGeometry>
        </mxCell>
        <mxCell id="FHkpGJtZapeOgSbPol6g-32" style="edgeStyle=orthogonalEdgeStyle;rounded=0;orthogonalLoop=1;jettySize=auto;html=1;startArrow=none;startFill=0;endArrow=classic;endFill=1;" edge="1" parent="FHkpGJtZapeOgSbPol6g-1" source="FHkpGJtZapeOgSbPol6g-33">
          <mxGeometry relative="1" as="geometry">
            <mxPoint x="-350" y="750" as="targetPoint" />
          </mxGeometry>
        </mxCell>
        <mxCell id="FHkpGJtZapeOgSbPol6g-33" value="Send Whatsapp message" style="shape=process;whiteSpace=wrap;html=1;backgroundOutline=1;glass=0;sketch=0;" vertex="1" parent="FHkpGJtZapeOgSbPol6g-1">
          <mxGeometry x="-310" y="720" width="120" height="60" as="geometry" />
        </mxCell>
        <mxCell id="FHkpGJtZapeOgSbPol6g-34" value="No" style="edgeLabel;html=1;align=center;verticalAlign=middle;resizable=0;points=[];" vertex="1" connectable="0" parent="FHkpGJtZapeOgSbPol6g-1">
          <mxGeometry x="89.99588235294121" y="660" as="geometry">
            <mxPoint x="-8" y="-6" as="offset" />
          </mxGeometry>
        </mxCell>
        <mxCell id="FHkpGJtZapeOgSbPol6g-35" value="Entered as visitor" style="rhombus;whiteSpace=wrap;html=1;glass=0;sketch=0;" vertex="1" parent="FHkpGJtZapeOgSbPol6g-1">
          <mxGeometry x="-100" y="690" width="120" height="120" as="geometry" />
        </mxCell>
        <mxCell id="FHkpGJtZapeOgSbPol6g-36" value="CLOSE" style="rounded=1;whiteSpace=wrap;html=1;fontSize=12;glass=0;strokeWidth=1;shadow=0;arcSize=50;fillColor=#dae8fc;strokeColor=#6c8ebf;" vertex="1" parent="FHkpGJtZapeOgSbPol6g-1">
          <mxGeometry x="-430" y="730" width="80" height="40" as="geometry" />
        </mxCell>
        <mxCell id="FHkpGJtZapeOgSbPol6g-37" value="CLOSE" style="rounded=1;whiteSpace=wrap;html=1;fontSize=12;glass=0;strokeWidth=1;shadow=0;arcSize=50;fillColor=#dae8fc;strokeColor=#6c8ebf;" vertex="1" parent="FHkpGJtZapeOgSbPol6g-1">
          <mxGeometry x="160" y="960" width="80" height="40" as="geometry" />
        </mxCell>
        <mxCell id="FHkpGJtZapeOgSbPol6g-38" style="edgeStyle=orthogonalEdgeStyle;rounded=0;orthogonalLoop=1;jettySize=auto;html=1;entryX=0.5;entryY=0;entryDx=0;entryDy=0;exitX=0.5;exitY=0;exitDx=0;exitDy=0;dashed=1;" edge="1" parent="FHkpGJtZapeOgSbPol6g-1" source="FHkpGJtZapeOgSbPol6g-39" target="FHkpGJtZapeOgSbPol6g-41">
          <mxGeometry relative="1" as="geometry" />
        </mxCell>
        <mxCell id="FHkpGJtZapeOgSbPol6g-39" value="Correct Auth" style="rhombus;whiteSpace=wrap;html=1;glass=0;sketch=0;" vertex="1" parent="FHkpGJtZapeOgSbPol6g-1">
          <mxGeometry x="530" y="370" width="110" height="120" as="geometry" />
        </mxCell>
        <mxCell id="FHkpGJtZapeOgSbPol6g-40" style="edgeStyle=orthogonalEdgeStyle;rounded=0;orthogonalLoop=1;jettySize=auto;html=1;" edge="1" parent="FHkpGJtZapeOgSbPol6g-1" source="FHkpGJtZapeOgSbPol6g-41" target="FHkpGJtZapeOgSbPol6g-39">
          <mxGeometry relative="1" as="geometry" />
        </mxCell>
        <mxCell id="FHkpGJtZapeOgSbPol6g-41" value="Login/ Signup Screen" style="rounded=1;whiteSpace=wrap;html=1;glass=0;fillColor=#f8cecc;strokeColor=#b85450;" vertex="1" parent="FHkpGJtZapeOgSbPol6g-1">
          <mxGeometry x="340" y="400" width="120" height="60" as="geometry" />
        </mxCell>
        <mxCell id="FHkpGJtZapeOgSbPol6g-42" style="edgeStyle=orthogonalEdgeStyle;rounded=0;orthogonalLoop=1;jettySize=auto;html=1;entryX=0;entryY=0.5;entryDx=0;entryDy=0;" edge="1" parent="FHkpGJtZapeOgSbPol6g-1" target="FHkpGJtZapeOgSbPol6g-13">
          <mxGeometry relative="1" as="geometry">
            <mxPoint x="720" y="429.71" as="targetPoint" />
            <mxPoint x="640" y="429.71" as="sourcePoint" />
          </mxGeometry>
        </mxCell>
        <mxCell id="FHkpGJtZapeOgSbPol6g-43" style="edgeStyle=orthogonalEdgeStyle;rounded=0;orthogonalLoop=1;jettySize=auto;html=1;dashed=1;entryX=0;entryY=0.5;entryDx=0;entryDy=0;" edge="1" parent="FHkpGJtZapeOgSbPol6g-1" source="FHkpGJtZapeOgSbPol6g-44" target="FHkpGJtZapeOgSbPol6g-46">
          <mxGeometry relative="1" as="geometry">
            <mxPoint x="515" y="240" as="targetPoint" />
          </mxGeometry>
        </mxCell>
        <mxCell id="FHkpGJtZapeOgSbPol6g-44" value="Home Button Pressed" style="rhombus;whiteSpace=wrap;html=1;glass=0;sketch=0;" vertex="1" parent="FHkpGJtZapeOgSbPol6g-1">
          <mxGeometry x="340" y="180" width="110" height="120" as="geometry" />
        </mxCell>
        <mxCell id="FHkpGJtZapeOgSbPol6g-45" style="edgeStyle=orthogonalEdgeStyle;rounded=0;orthogonalLoop=1;jettySize=auto;html=1;entryX=0;entryY=0.5;entryDx=0;entryDy=0;dashed=1;" edge="1" parent="FHkpGJtZapeOgSbPol6g-1" source="FHkpGJtZapeOgSbPol6g-46" target="FHkpGJtZapeOgSbPol6g-47">
          <mxGeometry relative="1" as="geometry" />
        </mxCell>
        <mxCell id="FHkpGJtZapeOgSbPol6g-46" value="Listings Screen" style="rounded=1;whiteSpace=wrap;html=1;fillColor=#f8cecc;strokeColor=#b85450;" vertex="1" parent="FHkpGJtZapeOgSbPol6g-1">
          <mxGeometry x="520" y="210" width="120" height="60" as="geometry" />
        </mxCell>
        <mxCell id="FHkpGJtZapeOgSbPol6g-47" value="&lt;b&gt;&lt;font style=&quot;font-size: 20px;&quot;&gt;1&lt;/font&gt;&lt;/b&gt;" style="ellipse;whiteSpace=wrap;html=1;fillColor=#f8cecc;strokeColor=#b85450;rounded=1;" vertex="1" parent="FHkpGJtZapeOgSbPol6g-1">
          <mxGeometry x="740" y="210" width="60" height="60" as="geometry" />
        </mxCell>
        <mxCell id="FHkpGJtZapeOgSbPol6g-48" style="edgeStyle=orthogonalEdgeStyle;rounded=0;orthogonalLoop=1;jettySize=auto;html=1;dashed=1;fontSize=20;" edge="1" parent="FHkpGJtZapeOgSbPol6g-1" target="FHkpGJtZapeOgSbPol6g-19">
          <mxGeometry relative="1" as="geometry">
            <mxPoint x="200" y="610" as="sourcePoint" />
          </mxGeometry>
        </mxCell>
        <mxCell id="FHkpGJtZapeOgSbPol6g-49" value="&lt;b&gt;&lt;font style=&quot;font-size: 20px;&quot;&gt;1&lt;/font&gt;&lt;/b&gt;" style="ellipse;whiteSpace=wrap;html=1;fillColor=#f8cecc;strokeColor=#b85450;rounded=1;" vertex="1" parent="FHkpGJtZapeOgSbPol6g-1">
          <mxGeometry x="170" y="554" width="60" height="60" as="geometry" />
        </mxCell>
      </root>
    </mxGraphModel>
  </diagram>
  <diagram id="oPOXSU44NxveSShp0875" name="Database">
    <mxGraphModel dx="1687" dy="828" grid="1" gridSize="10" guides="1" tooltips="1" connect="1" arrows="1" fold="1" page="1" pageScale="1" pageWidth="850" pageHeight="1100" math="0" shadow="0">
      <root>
        <mxCell id="0" />
        <mxCell id="1" parent="0" />
        <mxCell id="5AmN2zC35LISSpYGE-8b-1" value="Listing" style="swimlane;fontStyle=0;childLayout=stackLayout;horizontal=1;startSize=30;horizontalStack=0;resizeParent=1;resizeParentMax=0;resizeLast=0;collapsible=1;marginBottom=0;whiteSpace=wrap;html=1;fontSize=20;" vertex="1" parent="1">
          <mxGeometry x="140" y="80" width="140" height="120" as="geometry" />
        </mxCell>
        <mxCell id="5AmN2zC35LISSpYGE-8b-2" value="id" style="text;strokeColor=none;fillColor=none;align=left;verticalAlign=middle;spacingLeft=4;spacingRight=4;overflow=hidden;points=[[0,0.5],[1,0.5]];portConstraint=eastwest;rotatable=0;whiteSpace=wrap;html=1;fontSize=20;" vertex="1" parent="5AmN2zC35LISSpYGE-8b-1">
          <mxGeometry y="30" width="140" height="30" as="geometry" />
        </mxCell>
        <mxCell id="5AmN2zC35LISSpYGE-8b-3" value="name" style="text;strokeColor=none;fillColor=none;align=left;verticalAlign=middle;spacingLeft=4;spacingRight=4;overflow=hidden;points=[[0,0.5],[1,0.5]];portConstraint=eastwest;rotatable=0;whiteSpace=wrap;html=1;fontSize=20;" vertex="1" parent="5AmN2zC35LISSpYGE-8b-1">
          <mxGeometry y="60" width="140" height="30" as="geometry" />
        </mxCell>
        <mxCell id="5AmN2zC35LISSpYGE-8b-4" value="description" style="text;strokeColor=none;fillColor=none;align=left;verticalAlign=middle;spacingLeft=4;spacingRight=4;overflow=hidden;points=[[0,0.5],[1,0.5]];portConstraint=eastwest;rotatable=0;whiteSpace=wrap;html=1;fontSize=20;" vertex="1" parent="5AmN2zC35LISSpYGE-8b-1">
          <mxGeometry y="90" width="140" height="30" as="geometry" />
        </mxCell>
        <mxCell id="5AmN2zC35LISSpYGE-8b-5" value="Agent" style="swimlane;fontStyle=0;childLayout=stackLayout;horizontal=1;startSize=30;horizontalStack=0;resizeParent=1;resizeParentMax=0;resizeLast=0;collapsible=1;marginBottom=0;whiteSpace=wrap;html=1;fontSize=20;" vertex="1" parent="1">
          <mxGeometry x="340" y="440" width="140" height="150" as="geometry">
            <mxRectangle x="340" y="440" width="90" height="40" as="alternateBounds" />
          </mxGeometry>
        </mxCell>
        <mxCell id="5AmN2zC35LISSpYGE-8b-6" value="id" style="text;strokeColor=none;fillColor=none;align=left;verticalAlign=middle;spacingLeft=4;spacingRight=4;overflow=hidden;points=[[0,0.5],[1,0.5]];portConstraint=eastwest;rotatable=0;whiteSpace=wrap;html=1;fontSize=20;" vertex="1" parent="5AmN2zC35LISSpYGE-8b-5">
          <mxGeometry y="30" width="140" height="30" as="geometry" />
        </mxCell>
        <mxCell id="5AmN2zC35LISSpYGE-8b-7" value="email" style="text;strokeColor=none;fillColor=none;align=left;verticalAlign=middle;spacingLeft=4;spacingRight=4;overflow=hidden;points=[[0,0.5],[1,0.5]];portConstraint=eastwest;rotatable=0;whiteSpace=wrap;html=1;fontSize=20;" vertex="1" parent="5AmN2zC35LISSpYGE-8b-5">
          <mxGeometry y="60" width="140" height="30" as="geometry" />
        </mxCell>
        <mxCell id="xH_MV99oQ1ks5V1ml3go-2" value="phone&lt;br&gt;name" style="text;strokeColor=none;fillColor=none;align=left;verticalAlign=middle;spacingLeft=4;spacingRight=4;overflow=hidden;points=[[0,0.5],[1,0.5]];portConstraint=eastwest;rotatable=0;whiteSpace=wrap;html=1;fontSize=20;" vertex="1" parent="5AmN2zC35LISSpYGE-8b-5">
          <mxGeometry y="90" width="140" height="30" as="geometry" />
        </mxCell>
        <mxCell id="5AmN2zC35LISSpYGE-8b-8" value="fullName" style="text;strokeColor=none;fillColor=none;align=left;verticalAlign=middle;spacingLeft=4;spacingRight=4;overflow=hidden;points=[[0,0.5],[1,0.5]];portConstraint=eastwest;rotatable=0;whiteSpace=wrap;html=1;fontSize=20;" vertex="1" parent="5AmN2zC35LISSpYGE-8b-5">
          <mxGeometry y="120" width="140" height="30" as="geometry" />
        </mxCell>
        <mxCell id="5AmN2zC35LISSpYGE-8b-9" value="Admin" style="swimlane;fontStyle=0;childLayout=stackLayout;horizontal=1;startSize=30;horizontalStack=0;resizeParent=1;resizeParentMax=0;resizeLast=0;collapsible=1;marginBottom=0;whiteSpace=wrap;html=1;fontSize=20;" vertex="1" parent="1">
          <mxGeometry x="630" y="80" width="140" height="120" as="geometry" />
        </mxCell>
        <mxCell id="5AmN2zC35LISSpYGE-8b-10" value="id" style="text;strokeColor=none;fillColor=none;align=left;verticalAlign=middle;spacingLeft=4;spacingRight=4;overflow=hidden;points=[[0,0.5],[1,0.5]];portConstraint=eastwest;rotatable=0;whiteSpace=wrap;html=1;fontSize=20;" vertex="1" parent="5AmN2zC35LISSpYGE-8b-9">
          <mxGeometry y="30" width="140" height="30" as="geometry" />
        </mxCell>
        <mxCell id="5AmN2zC35LISSpYGE-8b-11" value="email&lt;span style=&quot;white-space: pre;&quot;&gt;	&lt;/span&gt;" style="text;strokeColor=none;fillColor=none;align=left;verticalAlign=middle;spacingLeft=4;spacingRight=4;overflow=hidden;points=[[0,0.5],[1,0.5]];portConstraint=eastwest;rotatable=0;whiteSpace=wrap;html=1;fontSize=20;" vertex="1" parent="5AmN2zC35LISSpYGE-8b-9">
          <mxGeometry y="60" width="140" height="30" as="geometry" />
        </mxCell>
        <mxCell id="5AmN2zC35LISSpYGE-8b-12" value="password" style="text;strokeColor=none;fillColor=none;align=left;verticalAlign=middle;spacingLeft=4;spacingRight=4;overflow=hidden;points=[[0,0.5],[1,0.5]];portConstraint=eastwest;rotatable=0;whiteSpace=wrap;html=1;fontSize=20;" vertex="1" parent="5AmN2zC35LISSpYGE-8b-9">
          <mxGeometry y="90" width="140" height="30" as="geometry" />
        </mxCell>
        <mxCell id="5AmN2zC35LISSpYGE-8b-19" style="edgeStyle=orthogonalEdgeStyle;rounded=0;orthogonalLoop=1;jettySize=auto;html=1;fontSize=20;" edge="1" parent="1" source="5AmN2zC35LISSpYGE-8b-13">
          <mxGeometry relative="1" as="geometry">
            <mxPoint x="280" y="140" as="targetPoint" />
          </mxGeometry>
        </mxCell>
        <mxCell id="5AmN2zC35LISSpYGE-8b-23" style="edgeStyle=orthogonalEdgeStyle;rounded=0;orthogonalLoop=1;jettySize=auto;html=1;entryX=1;entryY=0.5;entryDx=0;entryDy=0;fontSize=20;exitX=0.5;exitY=1;exitDx=0;exitDy=0;" edge="1" parent="1" source="5AmN2zC35LISSpYGE-8b-13" target="5AmN2zC35LISSpYGE-8b-7">
          <mxGeometry relative="1" as="geometry" />
        </mxCell>
        <mxCell id="5AmN2zC35LISSpYGE-8b-13" value="" style="rhombus;whiteSpace=wrap;html=1;fontSize=20;" vertex="1" parent="1">
          <mxGeometry x="570" y="110" width="60" height="60" as="geometry" />
        </mxCell>
        <mxCell id="5AmN2zC35LISSpYGE-8b-20" value="Can CRUD Listing For Agent" style="text;html=1;strokeColor=none;fillColor=none;align=left;verticalAlign=middle;whiteSpace=wrap;rounded=0;fontSize=20;" vertex="1" parent="1">
          <mxGeometry x="365" y="80" width="120" height="30" as="geometry" />
        </mxCell>
        <mxCell id="5AmN2zC35LISSpYGE-8b-22" style="rounded=0;orthogonalLoop=1;jettySize=auto;html=1;entryX=0.433;entryY=0.989;entryDx=0;entryDy=0;entryPerimeter=0;fontSize=20;exitX=0;exitY=0.5;exitDx=0;exitDy=0;edgeStyle=orthogonalEdgeStyle;" edge="1" parent="1" source="5AmN2zC35LISSpYGE-8b-21" target="5AmN2zC35LISSpYGE-8b-4">
          <mxGeometry relative="1" as="geometry" />
        </mxCell>
        <mxCell id="5AmN2zC35LISSpYGE-8b-21" value="" style="rhombus;whiteSpace=wrap;html=1;fontSize=20;fillColor=#000000;strokeColor=none;fillStyle=solid;" vertex="1" parent="1">
          <mxGeometry x="380" y="380" width="60" height="60" as="geometry" />
        </mxCell>
        <mxCell id="5AmN2zC35LISSpYGE-8b-24" value="Can CRUD On Agent" style="text;html=1;strokeColor=none;fillColor=none;align=left;verticalAlign=middle;whiteSpace=wrap;rounded=0;fontSize=20;" vertex="1" parent="1">
          <mxGeometry x="610" y="320" width="120" height="30" as="geometry" />
        </mxCell>
        <mxCell id="5AmN2zC35LISSpYGE-8b-25" value="Can CRUD On Listing" style="text;html=1;strokeColor=none;fillColor=none;align=right;verticalAlign=middle;whiteSpace=wrap;rounded=0;fontSize=20;" vertex="1" parent="1">
          <mxGeometry x="70" y="310" width="120" height="30" as="geometry" />
        </mxCell>
        <mxCell id="aCvSE8PnEoK45GYvlGhv-2" style="edgeStyle=orthogonalEdgeStyle;rounded=0;orthogonalLoop=1;jettySize=auto;html=1;entryX=-0.02;entryY=0.356;entryDx=0;entryDy=0;entryPerimeter=0;fontSize=20;" edge="1" parent="1" source="aCvSE8PnEoK45GYvlGhv-1" target="5AmN2zC35LISSpYGE-8b-7">
          <mxGeometry relative="1" as="geometry" />
        </mxCell>
        <mxCell id="aCvSE8PnEoK45GYvlGhv-1" value="" style="rhombus;whiteSpace=wrap;html=1;fontSize=20;" vertex="1" parent="1">
          <mxGeometry x="220" y="200" width="60" height="60" as="geometry" />
        </mxCell>
        <mxCell id="aCvSE8PnEoK45GYvlGhv-3" value="Can See Its Agent" style="text;html=1;strokeColor=none;fillColor=none;align=left;verticalAlign=middle;whiteSpace=wrap;rounded=0;fontSize=20;" vertex="1" parent="1">
          <mxGeometry x="260" y="310" width="120" height="30" as="geometry" />
        </mxCell>
      </root>
    </mxGraphModel>
  </diagram>
</mxfile>
